<svg xmlns="http://www.w3.org/2000/svg" version="1.1" xmlns:xlink="http://www.w3.org/1999/xlink" xmlns:svgjs="http://svgjs.dev/svgjs" width="100%" height="100%" viewBox="0 0 1000 600"><rect width="1000" height="600" x="0" y="0" fill="&#9;#ecc036"/><g><rect width="333.3333333333333" height="333.3333333333333" rx="13.333333333333334" ry="13.333333333333334" y="237.32520013040306" fill="&#9;#c3bc13" transform="matrix(0.5811170442934335,0,0,0.5811170442934335,0,65.23344388423287)" x="215.10296630859375"/><path d="M382.22314867689414 478.99185871480177L382.22314867689414 478.99185871480177Q372.48438668159224 478.99185871480177 363.1490053606519 477.3207102067322Q353.81362403971167 475.6783746039742 345.8036363631024 472.56658083032744Q337.82246159180465 469.4547870566807 331.3971837073303 464.67184477496437L331.3971837073303 464.67184477496437Q328.9192738505376 462.799005929714 327.9684479752566 460.40753478885586Q327.0464350052872 458.0448765533092 327.565067300895 455.65340541245104Q328.0836995965028 453.2619342715929 329.63959648332616 451.59078576352334Q331.19549337014956 449.94845016076533 333.47171288976153 449.7467598235845Q335.7479324093735 449.5162565810922 338.45634550865867 451.1874050891617L338.45634550865867 451.1874050891617Q347.79172682959893 457.81437331081685 358.3660630789356 460.839728368529Q368.9403993282723 463.8362705209296 382.22314867689414 463.8362705209296L382.22314867689414 463.8362705209296Q400.8939113187747 463.8362705209296 409.912350681288 456.89236034084746Q418.9307900438013 449.94845016076533 418.9307900438013 438.53853965739387L418.9307900438013 438.53853965739387Q418.9307900438013 429.2031583364536 412.41907344339234 423.9015837591295Q405.87854393767185 418.6288220871169 390.5212654066188 415.5170283134702L390.5212654066188 415.5170283134702L368.9403993282723 411.13746670611545Q349.43406243235694 406.9884083412531 339.81055205830125 397.5665883043782Q330.15822877893396 388.1159553621917 330.15822877893396 372.3552961567771L330.15822877893396 372.3552961567771Q330.15822877893396 362.6165341614752 334.1055968066155 354.606546484866Q338.0241519289855 346.62537171356826 345.0833137303138 340.9204164618825Q352.1424755316421 335.2154612101968 361.881237526944 332.10366743655004Q371.64881242755746 328.9918736629033 383.4621036052905 328.9918736629033L383.4621036052905 328.9918736629033Q396.54316261673154 328.9918736629033 407.83782149885684 332.62229973215784Q419.16129328629364 336.2527258014124 428.2661713647416 343.5135779399215L428.2661713647416 343.5135779399215Q430.5712037896651 345.3864167851719 431.37796513838833 347.77788792603Q432.2135393924231 350.16935906688815 431.6084683808807 352.33032696525396Q430.97458446402675 354.5201077689313 429.41868757720334 355.9607530345085Q427.86279069038 357.43021120539726 425.4713195495218 357.6319015425781Q423.0798484086636 357.8335918797589 420.19855787750924 355.9607530345085L420.19855787750924 355.9607530345085Q411.90044114778453 349.737165487215 402.96844050120586 346.94231367199524Q394.0364398546272 344.14746185677546 383.2604132681097 344.14746185677546L383.2604132681097 344.14746185677546Q372.25388343909987 344.14746185677546 364.27270866780214 347.46094596760304Q356.29153389650446 350.7744300784306 351.8255335732151 357.11326924697033Q347.3595332499258 363.42329551019844 347.3595332499258 371.72141223992315L347.3595332499258 371.72141223992315Q347.3595332499258 381.6906774777174 353.4966820812847 387.5108843506493Q359.60501800733203 393.30227831826966 373.5216512728078 396.01069141755477L373.5216512728078 396.01069141755477L395.0737044458428 400.56313045677877Q416.0494995126469 404.91387915882194 426.10520346637577 413.7306281841544Q436.16090742010465 422.5473772094869 436.16090742010465 437.7029654033591L436.16090742010465 437.7029654033591Q436.16090742010465 446.8366563871186 432.41522972960394 454.5008891999893Q428.6983649444147 462.1939349181715 421.63920314308643 467.66838692736496Q414.58004134175815 473.17165184186985 404.6395890092754 476.0817552783358Q394.67032377148115 478.99185871480177 382.22314867689414 478.99185871480177Z " fill="&#9;#f6e21b" transform="matrix(0.5811170442934335,0,0,0.5811170442934335,0,65.23344388423287)"/><path d="M675.7841164219938 449.37107447344977L675.7841164219938 449.37107447344977Q667.9684864095811 449.37107447344977 660.4765807172092 448.02993086185234Q652.9846750248373 446.7119104159721 646.5564349554566 444.21460851851486Q640.1513180517929 441.71730662105756 634.994852096858 437.8788611120028L634.994852096858 437.8788611120028Q633.0062598451791 436.37585534038504 632.2431953765116 434.4566325858577Q631.5032540735613 432.5605329970475 631.9194710564709 430.64131024252015Q632.3356880393803 428.7220874879928 633.584338988109 427.38094387639535Q634.8329899368377 426.0629234305151 636.6597200284962 425.9010612704948Q638.4864501201548 425.71607594475716 640.6600276975714 427.0572195563546L640.6600276975714 427.0572195563546Q648.1519333899432 432.37554767130996 656.6381352081546 434.80348007161564Q665.1243370263658 437.2082893062041 675.7841164219938 437.2082893062041L675.7841164219938 437.2082893062041Q690.7679278067374 437.2082893062041 698.00547867622 431.6356063683596Q705.2430295457027 426.0629234305151 705.2430295457027 416.9061498065051L705.2430295457027 416.9061498065051Q705.2430295457027 409.4142441141332 700.0171940936162 405.15958162216896Q694.7682354758125 400.9280422959219 682.4435881485465 398.43074039846465L682.4435881485465 398.43074039846465L665.1243370263658 394.91601920945067Q649.4699538358234 391.5862833461743 641.7468164862796 384.02500815665087Q634.0005559710186 376.44060980141023 634.0005559710186 363.7922381541034L634.0005559710186 363.7922381541034Q634.0005559710186 355.9766081416908 637.1684296742746 349.54836807231Q640.3131802118135 343.14325116864643 645.9783558125266 338.5648643566414Q651.64353141324 333.9864775446364 659.4591614256526 331.4891756471791Q667.2979146037824 328.99187374972183 676.7784125478331 328.99187374972183L676.7784125478331 328.99187374972183Q687.2763297834406 328.99187374972183 696.3406107445819 331.90539263008867Q705.4280148714404 334.81891151045545 712.7349352380746 340.6459492711891L712.7349352380746 340.6459492711891Q714.5847884954504 342.14895504280696 715.2322371355319 344.0681777973343Q715.9028089413307 345.98740055186164 715.4172224612695 347.72163798065145Q714.9085128154911 349.4789985751584 713.6598618667625 350.6351568610183Q712.4112109180339 351.8144383125953 710.4919881635064 351.9763004726157Q708.5727654089792 352.13816263263607 706.2604488372594 350.6351568610183L706.2604488372594 350.6351568610183Q699.6009771107067 345.6405530661037 692.4327957383756 343.3976059915356Q685.2646143660445 341.15465891696743 676.6165503878128 341.15465891696743L676.6165503878128 341.15465891696743Q667.7835010838435 341.15465891696743 661.3783841801799 343.81382297444515Q654.9732672765163 346.4729870319228 651.3891765903509 351.5600834897062Q647.8050859041853 356.6240567817723 647.8050859041853 363.28352850832505L647.8050859041853 363.28352850832505Q647.8050859041853 371.2841438464753 652.7303202019482 375.9550233213491Q657.632431333994 380.60277963050567 668.8009203754002 382.7763572079222L668.8009203754002 382.7763572079222L686.0970483318636 386.42981739123934Q702.9307129739831 389.9214154145361 711.0006978092849 396.9971041239984Q719.0706826445867 404.0727928334607 719.0706826445867 416.23557800070637L719.0706826445867 416.23557800070637Q719.0706826445867 423.5656215330579 716.064671101351 429.71638361383225Q713.0817827238326 435.8902688603239 707.4166071231193 440.28367034659135Q701.7514315224059 444.70019499857597 693.773939349973 447.03563473601287Q685.7733240118228 449.37107447344977 675.7841164219938 449.37107447344977ZM772.022732136968 449.37107447344977L772.022732136968 449.37107447344977Q760.183671289763 449.37107447344977 751.5356073115313 444.21460851851486Q742.8875433332996 439.0350193978627 738.124171195557 429.6470141166807Q733.3839222235317 420.23588566978145 733.3839222235317 407.4025286967371L733.3839222235317 407.4025286967371Q733.3839222235317 397.76016859266593 736.0430862810092 390.0139080774049Q738.7253735042041 382.26764756214385 743.8818394591392 376.7874572871682Q749.0383054140741 371.2841438464753 756.1139941235363 368.37062496610844Q763.1896828329986 365.4571060857416 772.022732136968 365.4571060857416L772.022732136968 365.4571060857416Q783.8386698184556 365.4571060857416 792.4867337966873 370.61357204067656Q801.1579209406364 375.77003799561146 805.8981699126616 385.1811664425107Q810.6384188846871 394.5922948894099 810.6384188846871 407.4025286967371L810.6384188846871 407.4025286967371Q810.6384188846871 417.0680119665255 807.9792548272094 424.7217798189177Q805.3200907697317 432.37554767130996 800.1405016490796 437.97135377487166Q794.9840356941447 443.54403671271615 787.9083469846823 446.45755559308293Q780.83265827522 449.37107447344977 772.022732136968 449.37107447344977ZM772.022732136968 438.54943291780154L772.022732136968 438.54943291780154Q779.5146378293398 438.54943291780154 785.156690264336 434.8728495687672Q790.8218658650492 431.2193893854501 793.8972469054363 424.23619333885654Q796.9957511115408 417.22987412654584 796.9957511115408 407.4025286967371L796.9957511115408 407.4025286967371Q796.9957511115408 392.256855151973 790.2437867221192 384.27936297954Q783.4918223326977 376.2787476413898 772.022732136968 376.2787476413898L772.022732136968 376.2787476413898Q764.3458411188585 376.2787476413898 758.773158181014 379.8628383275554Q753.2004752431694 383.44692901372093 750.1250942027823 390.33763239744565Q747.0497131623952 397.25145894688757 747.0497131623952 407.4025286967371L747.0497131623952 407.4025286967371Q747.0497131623952 422.3863400814808 753.8710470489682 430.4794480824998Q760.6923809355415 438.54943291780154 772.022732136968 438.54943291780154ZM859.5901607079934 449.37107447344977L859.5901607079934 449.37107447344977Q849.7628152781845 449.37107447344977 843.3576983745209 445.78698378728427Q836.9525814708575 442.2028931011187 833.6922151047327 435.0578348945048Q830.454971904325 427.8896535221737 830.454971904325 417.22987412654584L830.454971904325 417.22987412654584L830.454971904325 372.6252874580727Q830.454971904325 369.1105662690587 832.1892093331148 367.44569833742054Q833.9465699276218 365.78083040578235 837.1144436308778 365.78083040578235L837.1144436308778 365.78083040578235Q840.444179494154 365.78083040578235 842.1784169229438 367.44569833742054Q843.9357775174508 369.1105662690587 843.9357775174508 372.6252874580727L843.9357775174508 372.6252874580727L843.9357775174508 417.0680119665255Q843.9357775174508 427.7277913621533 848.3523021694355 432.97674997995705Q852.7688268214201 438.20258543204363 862.2493247654709 438.20258543204363L862.2493247654709 438.20258543204363Q872.5622566753409 438.20258543204363 879.0598662418734 431.2193893854501Q885.5574758084056 424.23619333885654 885.5574758084056 412.90584213743L885.5574758084056 412.90584213743L885.5574758084056 372.6252874580727Q885.5574758084056 369.1105662690587 887.3148364029125 367.44569833742054Q889.0490738317023 365.78083040578235 892.3788096949788 365.78083040578235L892.3788096949788 365.78083040578235Q895.5466833982348 365.78083040578235 897.3040439927418 367.44569833742054Q899.0382814215316 369.1105662690587 899.0382814215316 372.6252874580727L899.0382814215316 372.6252874580727L899.0382814215316 442.0410309410983Q899.0382814215316 449.0242269876918 892.5406718549991 449.0242269876918L892.5406718549991 449.0242269876918Q889.3959213174603 449.0242269876918 887.6385607229533 447.1974968960333Q885.8812001284464 445.3707668043747 885.8812001284464 442.0410309410983L885.8812001284464 442.0410309410983L885.8812001284464 426.89535739633425L888.054777705863 429.23079713377115Q884.7250418425865 439.0350193978627 877.1406434873459 444.21460851851486Q869.5793682978224 449.37107447344977 859.5901607079934 449.37107447344977ZM931.0176196084151 478.99184975717924L931.0176196084151 478.99184975717924Q927.6878837451386 478.99184975717924 926.0230158135005 477.2576123283895Q924.3581478818624 475.50025173388246 924.3581478818624 472.1705158706061L924.3581478818624 472.1705158706061L924.3581478818624 372.6252874580727Q924.3581478818624 369.29555159479634 926.0230158135005 367.5381910002893Q927.6878837451386 365.78083040578235 930.8326342826774 365.78083040578235L930.8326342826774 365.78083040578235Q934.1623701459539 365.78083040578235 935.9197307404609 367.5381910002893Q937.6770913349678 369.29555159479634 937.6770913349678 372.6252874580727L937.6770913349678 372.6252874580727L937.6770913349678 388.4415328086355L935.827238077592 386.1060930711986Q938.5095253007869 376.6024719614306 946.4176479760683 371.0297890235861Q954.3257706513498 365.4571060857416 965.3092743670184 365.4571060857416L965.3092743670184 365.4571060857416Q976.1309159226666 365.4571060857416 984.2009007579684 370.544202543525Q992.2708855932701 375.6081758355911 996.6874102452548 385.01930428249034Q1001.1039348972395 394.4304327293895 1001.1039348972395 407.4025286967371L1001.1039348972395 407.4025286967371Q1001.1039348972395 420.23588566978145 996.6874102452548 429.6470141166807Q992.2708855932701 439.0350193978627 984.2933934208372 444.21460851851486Q976.2927780826869 449.37107447344977 965.3092743670184 449.37107447344977L965.3092743670184 449.37107447344977Q954.3257706513498 449.37107447344977 946.48701747322 443.7983915356053Q938.6713874608074 438.20258543204363 935.827238077592 428.8839496480132L935.827238077592 428.8839496480132L937.8389534949881 428.8839496480132L937.8389534949881 472.1705158706061Q937.8389534949881 475.50025173388246 936.0122234033297 477.2576123283895Q934.1623701459539 478.99184975717924 931.0176196084151 478.99184975717924ZM962.4651249838032 438.54943291780154L962.4651249838032 438.54943291780154Q970.1420160019125 438.54943291780154 975.714698939757 434.8728495687672Q981.2873818776015 431.2193893854501 984.3627629179887 424.23619333885654Q987.438143958376 417.22987412654584 987.438143958376 407.4025286967371L987.438143958376 407.4025286967371Q987.438143958376 392.256855151973 980.7093027346716 384.27936297954Q973.95733834525 376.2787476413898 962.4651249838032 376.2787476413898L962.4651249838032 376.2787476413898Q954.9732192914312 376.2787476413898 949.3311668564352 379.8628383275554Q943.6659912557218 383.44692901372093 940.5906102153347 390.33763239744565Q937.4921060092304 397.25145894688757 937.4921060092304 407.4025286967371L937.4921060092304 407.4025286967371Q937.4921060092304 422.3863400814808 944.3365630615206 430.4794480824998Q951.1578969480938 438.54943291780154 962.4651249838032 438.54943291780154ZM1027.2331121576722 377.78175341300766L1027.2331121576722 377.78175341300766Q1025.4063820660135 377.78175341300766 1023.9958689572645 376.3712403042586Q1022.5853558485155 374.9376040297924 1022.2385083627576 372.4403021323351L1022.2385083627576 372.4403021323351L1019.9030686253207 337.4780755679331Q1019.5793443052798 333.9864775446364 1021.6604292198276 331.6510378071995Q1023.7415141343754 329.3387212354798 1027.2331121576722 329.3387212354798L1027.2331121576722 329.3387212354798Q1029.568551895109 329.3387212354798 1031.2334198267472 330.40238685847083Q1032.8982877583855 331.4891756471791 1033.8232143870732 333.31590573883767Q1034.725017850044 335.1657589962134 1034.5631556900237 337.4780755679331L1034.5631556900237 337.4780755679331L1032.2277159525868 372.4403021323351Q1032.0658537925663 374.9376040297924 1030.724710180969 376.3712403042586Q1029.4066897350888 377.78175341300766 1027.2331121576722 377.78175341300766ZM1065.0394881052894 449.0242269876918L1065.0394881052894 449.0242269876918Q1061.7097522420129 449.0242269876918 1059.952391647506 447.1974968960333Q1058.195031052999 445.3707668043747 1058.195031052999 442.0410309410983L1058.195031052999 442.0410309410983L1058.195031052999 372.6252874580727Q1058.195031052999 369.29555159479634 1059.859898984637 367.5381910002893Q1061.5247669162754 365.78083040578235 1064.6926406195314 365.78083040578235L1064.6926406195314 365.78083040578235Q1067.8605143227874 365.78083040578235 1069.6178749172943 367.5381910002893Q1071.3521123460841 369.29555159479634 1071.3521123460841 372.6252874580727L1071.3521123460841 372.6252874580727L1071.3521123460841 386.1060930711986L1069.687244414446 386.1060930711986Q1072.3464084719237 376.2787476413898 1079.8383141642955 370.9604195264345Q1087.3302198566673 365.61896824576195 1098.336846738053 365.2952439257212L1098.336846738053 365.2952439257212Q1100.8341486355105 365.13338176570085 1102.314031241411 366.38203271442944Q1103.8170370130288 367.6306836631581 1103.9788991730493 370.61357204067656L1103.9788991730493 370.61357204067656Q1104.1638844987867 373.45772142389177 1102.660878727169 375.12258935552995Q1101.157872955551 376.7874572871682 1097.989999252295 377.1111816072089L1097.989999252295 377.1111816072089L1095.3308351948176 377.4349059272497Q1084.000483993391 378.4523252188063 1077.9422145754854 384.6955799624496Q1071.8608219918624 390.9388347060928 1071.8608219918624 401.760476261741L1071.8608219918624 401.760476261741L1071.8608219918624 442.0410309410983Q1071.8608219918624 445.3707668043747 1070.1034613973554 447.1974968960333Q1068.3692239685656 449.0242269876918 1065.0394881052894 449.0242269876918ZM1169.9261677984953 449.0242269876918L1169.9261677984953 449.0242269876918Q1166.4114466094813 449.0242269876918 1164.5153470206712 447.1281273988817Q1162.5961242661438 445.20890464435433 1162.5961242661438 441.53232129532L1162.5961242661438 441.53232129532L1162.5961242661438 337.98678521371147Q1162.5961242661438 334.3333250303943 1164.5153470206712 332.414102275867Q1166.4114466094813 330.4948795213396 1170.0880299585156 330.4948795213396L1170.0880299585156 330.4948795213396L1230.5088619775515 330.4948795213396Q1233.353011360767 330.4948795213396 1234.8560171323847 331.9978852929574Q1236.3358997382854 333.5008910645752 1236.3358997382854 336.1600551220529L1236.3358997382854 336.1600551220529Q1236.3358997382854 338.98108133955094 1234.8560171323847 340.4840871111688Q1233.353011360767 341.98709288278656 1230.5088619775515 341.98709288278656L1230.5088619775515 341.98709288278656L1176.23879203929 341.98709288278656L1176.23879203929 382.93821936794257L1227.0172639542548 382.93821936794257Q1229.8614133374701 382.93821936794257 1231.4337886062394 384.4412251395604Q1233.006163875009 385.94423091117824 1233.006163875009 388.6033949686559L1233.006163875009 388.6033949686559Q1233.006163875009 391.4244211861539 1231.4337886062394 392.92742695777173Q1229.8614133374701 394.4304327293895 1227.0172639542548 394.4304327293895L1227.0172639542548 394.4304327293895L1176.23879203929 394.4304327293895L1176.23879203929 441.53232129532Q1176.23879203929 449.0242269876918 1169.9261677984953 449.0242269876918ZM1282.4666153440935 449.37107447344977L1282.4666153440935 449.37107447344977Q1270.6506776626056 449.37107447344977 1261.9794905186568 444.21460851851486Q1253.3314265404251 439.0350193978627 1248.5911775683999 429.6470141166807Q1243.827805430657 420.23588566978145 1243.827805430657 407.4025286967371L1243.827805430657 407.4025286967371Q1243.827805430657 397.76016859266593 1246.510092653852 390.0139080774049Q1249.1692567113296 382.26764756214385 1254.3257226662645 376.7874572871682Q1259.4821886211996 371.2841438464753 1266.557877330662 368.37062496610844Q1273.6335660401242 365.4571060857416 1282.4666153440935 365.4571060857416L1282.4666153440935 365.4571060857416Q1294.2825530255814 365.4571060857416 1302.9306170038128 370.61357204067656Q1311.6018041477619 375.77003799561146 1316.3420531197871 385.1811664425107Q1321.0823020918126 394.5922948894099 1321.0823020918126 407.4025286967371L1321.0823020918126 407.4025286967371Q1321.0823020918126 417.0680119665255 1318.423138034335 424.7217798189177Q1315.7639739768574 432.37554767130996 1310.6075080219225 437.97135377487166Q1305.4279189012702 443.54403671271615 1298.3522301918078 446.45755559308293Q1291.2765414823457 449.37107447344977 1282.4666153440935 449.37107447344977ZM1282.4666153440935 438.54943291780154L1282.4666153440935 438.54943291780154Q1289.9585210364653 438.54943291780154 1295.6236966371787 434.8728495687672Q1301.2657490721747 431.2193893854501 1304.3642532782792 424.23619333885654Q1307.4396343186663 417.22987412654584 1307.4396343186663 407.4025286967371L1307.4396343186663 407.4025286967371Q1307.4396343186663 392.256855151973 1300.6876699292447 384.27936297954Q1293.9588287055403 376.2787476413898 1282.4666153440935 376.2787476413898L1282.4666153440935 376.2787476413898Q1274.8128474917012 376.2787476413898 1269.2170413881395 379.8628383275554Q1263.6443584502952 383.44692901372093 1260.5689774099078 390.33763239744565Q1257.4935963695207 397.25145894688757 1257.4935963695207 407.4025286967371L1257.4935963695207 407.4025286967371Q1257.4935963695207 422.3863400814808 1264.3149302560937 430.4794480824998Q1271.1362641426667 438.54943291780154 1282.4666153440935 438.54943291780154ZM1375.0286477100335 449.37107447344977L1375.0286477100335 449.37107447344977Q1363.2127100285456 449.37107447344977 1354.5415228845968 444.21460851851486Q1345.8934589063651 439.0350193978627 1341.1532099343397 429.6470141166807Q1336.4129609623142 420.23588566978145 1336.4129609623142 407.4025286967371L1336.4129609623142 407.4025286967371Q1336.4129609623142 397.76016859266593 1339.0721250197919 390.0139080774049Q1341.7312890772696 382.26764756214385 1346.8877550322045 376.7874572871682Q1352.0442209871394 371.2841438464753 1359.1199096966018 368.37062496610844Q1366.1955984060642 365.4571060857416 1375.0286477100335 365.4571060857416L1375.0286477100335 365.4571060857416Q1386.8445853915212 365.4571060857416 1395.51577253547 370.61357204067656Q1404.1638365137019 375.77003799561146 1408.9040854857271 385.1811664425107Q1413.6443344577524 394.5922948894099 1413.6443344577524 407.4025286967371L1413.6443344577524 407.4025286967371Q1413.6443344577524 417.0680119665255 1410.985170400275 424.7217798189177Q1408.3260063427972 432.37554767130996 1403.169540387862 437.97135377487166Q1398.0130744329272 443.54403671271615 1390.937385723465 446.45755559308293Q1383.8616970140026 449.37107447344977 1375.0286477100335 449.37107447344977ZM1375.0286477100335 438.54943291780154L1375.0286477100335 438.54943291780154Q1382.5205534024053 438.54943291780154 1388.1857290031185 434.8728495687672Q1393.8509046038319 431.2193893854501 1396.9262856442192 424.23619333885654Q1400.0016666846063 417.22987412654584 1400.0016666846063 407.4025286967371L1400.0016666846063 407.4025286967371Q1400.0016666846063 392.256855151973 1393.2497022951848 384.27936297954Q1386.5208610714803 376.2787476413898 1375.0286477100335 376.2787476413898L1375.0286477100335 376.2787476413898Q1367.3748798576412 376.2787476413898 1361.8021969197966 379.8628383275554Q1356.206390816235 383.44692901372093 1353.1310097758478 390.33763239744565Q1350.0556287354607 397.25145894688757 1350.0556287354607 407.4025286967371L1350.0556287354607 407.4025286967371Q1350.0556287354607 422.3863400814808 1356.8769626220337 430.4794480824998Q1363.6982965086067 438.54943291780154 1375.0286477100335 438.54943291780154ZM1464.7696538584753 449.37107447344977L1464.7696538584753 449.37107447344977Q1453.948012302827 449.37107447344977 1445.8780274675253 444.21460851851486Q1437.7849194665064 439.0350193978627 1433.3915179802389 429.6470141166807Q1428.9749933282542 420.23588566978145 1428.9749933282542 407.4025286967371L1428.9749933282542 407.4025286967371Q1428.9749933282542 394.4304327293895 1433.3915179802389 385.01930428249034Q1437.7849194665064 375.6081758355911 1445.8780274675253 370.544202543525Q1453.948012302827 365.4571060857416 1464.7696538584753 365.4571060857416L1464.7696538584753 365.4571060857416Q1475.7531575741439 365.4571060857416 1483.5687875865565 370.9604195264345Q1491.4075407646865 376.44060980141023 1494.066704822164 385.7592455854406L1494.066704822164 385.7592455854406L1492.2399747305053 385.7592455854406L1492.2399747305053 336.1600551220529Q1492.2399747305053 332.8303192587765 1493.9742121592951 331.07295866426955Q1495.731572753802 329.3387212354798 1499.0613086170788 329.3387212354798L1499.0613086170788 329.3387212354798Q1502.2291823203345 329.3387212354798 1503.9634197491241 331.07295866426955Q1505.7207803436313 332.8303192587765 1505.7207803436313 336.1600551220529L1505.7207803436313 336.1600551220529L1505.7207803436313 442.0410309410983Q1505.7207803436313 445.3707668043747 1504.0559124119932 447.1974968960333Q1502.391044480355 449.0242269876918 1499.0613086170788 449.0242269876918L1499.0613086170788 449.0242269876918Q1495.8934349138226 449.0242269876918 1494.159197485033 447.1974968960333Q1492.4018368905256 445.3707668043747 1492.4018368905256 442.0410309410983L1492.4018368905256 442.0410309410983L1492.4018368905256 426.22478559053553L1494.2285669821842 428.56022532797243Q1491.5694029247068 438.04072327202323 1483.661280249425 443.7058988727365Q1475.7531575741439 449.37107447344977 1464.7696538584753 449.37107447344977ZM1467.5906800759733 438.54943291780154L1467.5906800759733 438.54943291780154Q1475.0825857683453 438.54943291780154 1480.7477613690585 434.8728495687672Q1486.4129369697716 431.2193893854501 1489.4883180101588 424.23619333885654Q1492.5636990505461 417.22987412654584 1492.5636990505461 407.4025286967371L1492.5636990505461 407.4025286967371Q1492.5636990505461 392.256855151973 1485.834857826842 384.27936297954Q1479.0828934374201 376.2787476413898 1467.5906800759733 376.2787476413898L1467.5906800759733 376.2787476413898Q1459.9369122235812 376.2787476413898 1454.3642292857367 379.8628383275554Q1448.791546347892 383.44692901372093 1445.6930421417876 390.33763239744565Q1442.6176611014005 397.25145894688757 1442.6176611014005 407.4025286967371L1442.6176611014005 407.4025286967371Q1442.6176611014005 422.3863400814808 1449.4389949879737 430.4794480824998Q1456.283452040264 438.54943291780154 1467.5906800759733 438.54943291780154Z " fill="&#9;#f6e21b" transform="matrix(0.5811170442934335,0,0,0.5811170442934335,0,65.23344388423287)"/></g></svg>